<svg xmlns="http://www.w3.org/2000/svg" width="1200" height="675" viewBox="0 0 1200 675" fill="none">
  <rect width="1200" height="675" fill="#f3f0f4"/>
  <g stroke="#e2dce8" stroke-width="1"><line x1="60" y1="0" x2="60" y2="675"/><line x1="120" y1="0" x2="120" y2="675"/><line x1="180" y1="0" x2="180" y2="675"/><line x1="240" y1="0" x2="240" y2="675"/><line x1="300" y1="0" x2="300" y2="675"/><line x1="360" y1="0" x2="360" y2="675"/><line x1="420" y1="0" x2="420" y2="675"/><line x1="480" y1="0" x2="480" y2="675"/><line x1="540" y1="0" x2="540" y2="675"/><line x1="600" y1="0" x2="600" y2="675"/><line x1="660" y1="0" x2="660" y2="675"/><line x1="720" y1="0" x2="720" y2="675"/><line x1="780" y1="0" x2="780" y2="675"/><line x1="840" y1="0" x2="840" y2="675"/><line x1="900" y1="0" x2="900" y2="675"/><line x1="960" y1="0" x2="960" y2="675"/><line x1="1020" y1="0" x2="1020" y2="675"/><line x1="1080" y1="0" x2="1080" y2="675"/><line x1="1140" y1="0" x2="1140" y2="675"/><line x1="0" y1="60" x2="1200" y2="60"/><line x1="0" y1="120" x2="1200" y2="120"/><line x1="0" y1="180" x2="1200" y2="180"/><line x1="0" y1="240" x2="1200" y2="240"/><line x1="0" y1="300" x2="1200" y2="300"/><line x1="0" y1="360" x2="1200" y2="360"/><line x1="0" y1="420" x2="1200" y2="420"/><line x1="0" y1="480" x2="1200" y2="480"/><line x1="0" y1="540" x2="1200" y2="540"/><line x1="0" y1="600" x2="1200" y2="600"/><line x1="0" y1="660" x2="1200" y2="660"/></g>
  <rect x="80" y="80" width="1040" height="515" stroke="#cbbfd6" stroke-width="1.5"/>
  <g stroke="#e11d63" stroke-width="4"><line x1="66" y1="80" x2="94" y2="80"/><line x1="80" y1="66" x2="80" y2="94"/></g><g stroke="#e11d63" stroke-width="4"><line x1="1106" y1="80" x2="1134" y2="80"/><line x1="1120" y1="66" x2="1120" y2="94"/></g><g stroke="#e11d63" stroke-width="4"><line x1="66" y1="595" x2="94" y2="595"/><line x1="80" y1="581" x2="80" y2="609"/></g><g stroke="#e11d63" stroke-width="4"><line x1="1106" y1="595" x2="1134" y2="595"/><line x1="1120" y1="581" x2="1120" y2="609"/></g>
  <text x="120" y="170" font-family="ui-monospace,Menlo,Consolas,monospace" font-size="22" letter-spacing="6" fill="#6b6473">ASTRO / MDX</text>
  <text x="118" y="380" font-family="Georgia,'Times New Roman',serif" font-style="italic" font-size="96" fill="#221d26">Portfolio &amp; Blog</text>
  <circle cx="1050" cy="525" r="26" fill="none" stroke="#e11d63" stroke-width="4"/>
  <circle cx="1050" cy="525" r="6" fill="#e11d63"/>
</svg>