<svg xmlns="http://www.w3.org/2000/svg" xmlns:svg="http://www.w3.org/2000/svg" id="svg1" width="204.8" height="204.8" version="1.1" viewBox="0 0 54.187 54.187"><defs id="defs12"><linearGradient id="a" x1="46.773" x2="69.907" y1="86.462" y2="126.732" gradientTransform="translate(-233.983 -518.974) scale(8.78996)" gradientUnits="userSpaceOnUse"><stop id="stop1" stop-color="#927BE5"/><stop id="stop2" offset="1" stop-color="#512BD4"/></linearGradient><filter id="b" width="42.845" height="39.136" x="44.629" y="91.89" color-interpolation-filters="sRGB" filterUnits="userSpaceOnUse"><feFlood id="feFlood2" flood-opacity="0" result="BackgroundImageFix"/><feColorMatrix id="feColorMatrix2" in="SourceAlpha" result="hardAlpha" type="matrix" values="0 0 0 0 0 0 0 0 0 0 0 0 0 0 0 0 0 0 127 0"/><feOffset id="feOffset2"/><feColorMatrix id="feColorMatrix3" type="matrix" values="0 0 0 0 0 0 0 0 0 0 0 0 0 0 0 0 0 0 0.1 0"/><feBlend id="feBlend3" in2="BackgroundImageFix" mode="normal" result="effect1_dropShadow_2037_2800"/><feColorMatrix id="feColorMatrix4" in="SourceAlpha" result="hardAlpha" type="matrix" values="0 0 0 0 0 0 0 0 0 0 0 0 0 0 0 0 0 0 127 0"/><feOffset id="feOffset4" dy="1"/><feGaussianBlur id="feGaussianBlur4" stdDeviation="2.499"/><feColorMatrix id="feColorMatrix5" type="matrix" values="0 0 0 0 0 0 0 0 0 0 0 0 0 0 0 0 0 0 0.1 0"/><feBlend id="feBlend5" in2="effect1_dropShadow_2037_2800" mode="normal" result="effect2_dropShadow_2037_2800"/><feColorMatrix id="feColorMatrix6" in="SourceAlpha" result="hardAlpha" type="matrix" values="0 0 0 0 0 0 0 0 0 0 0 0 0 0 0 0 0 0 127 0"/><feOffset id="feOffset6" dy="4"/><feGaussianBlur id="feGaussianBlur6" stdDeviation="2"/><feColorMatrix id="feColorMatrix7" type="matrix" values="0 0 0 0 0 0 0 0 0 0 0 0 0 0 0 0 0 0 0.09 0"/><feBlend id="feBlend7" in2="effect2_dropShadow_2037_2800" mode="normal" result="effect3_dropShadow_2037_2800"/><feColorMatrix id="feColorMatrix8" in="SourceAlpha" result="hardAlpha" type="matrix" values="0 0 0 0 0 0 0 0 0 0 0 0 0 0 0 0 0 0 127 0"/><feOffset id="feOffset8" dy="9"/><feGaussianBlur id="feGaussianBlur8" stdDeviation="2.5"/><feColorMatrix id="feColorMatrix9" type="matrix" values="0 0 0 0 0 0 0 0 0 0 0 0 0 0 0 0 0 0 0.05 0"/><feBlend id="feBlend9" in2="effect3_dropShadow_2037_2800" mode="normal" result="effect4_dropShadow_2037_2800"/><feColorMatrix id="feColorMatrix10" in="SourceAlpha" result="hardAlpha" type="matrix" values="0 0 0 0 0 0 0 0 0 0 0 0 0 0 0 0 0 0 127 0"/><feOffset id="feOffset10" dy="15"/><feGaussianBlur id="feGaussianBlur10" stdDeviation="3"/><feColorMatrix id="feColorMatrix11" type="matrix" values="0 0 0 0 0 0 0 0 0 0 0 0 0 0 0 0 0 0 0.01 0"/><feBlend id="feBlend11" in2="effect4_dropShadow_2037_2800" mode="normal" result="effect5_dropShadow_2037_2800"/><feBlend id="feBlend12" in="SourceGraphic" in2="effect5_dropShadow_2037_2800" mode="normal" result="shape"/></filter></defs><path id="path12" fill="url(#a)" d="M135.731 285.85v173.93c0 21.517 11.478 41.418 30.125 52.168l150.624 86.976a60.223 60.223 0 0 0 60.25 0l150.623-86.976a60.237 60.237 0 0 0 30.124-52.169V285.851c0-21.525-11.477-41.423-30.124-52.177L376.729 146.72a60.21 60.21 0 0 0-60.249 0l-150.624 86.954a60.245 60.245 0 0 0-30.125 52.177z" transform="matrix(.1 0 0 .1 -7.567 -10.189)"/><path id="path13" fill="#fff" d="M54.056 98.03v6.855a1.711 1.711 0 0 0 1.714 1.714 1.713 1.713 0 0 0 1.714-1.714 1.713 1.713 0 1 1 3.427 0 5.14 5.14 0 1 1-10.282 0v-6.854a5.14 5.14 0 1 1 10.282 0 1.712 1.712 0 1 1-3.427 0 1.712 1.712 0 1 0-3.427 0zm27.418 6.855a1.712 1.712 0 0 1-1.714 1.714h-1.714v1.713c0 .455-.18.891-.502 1.212a1.71 1.71 0 0 1-2.423 0 1.719 1.719 0 0 1-.502-1.212v-1.713h-3.427v1.713a1.71 1.71 0 0 1-1.714 1.714 1.71 1.71 0 0 1-1.713-1.714v-1.713H66.05a1.713 1.713 0 1 1 0-3.427h1.714v-3.427H66.05a1.712 1.712 0 1 1 0-3.427h1.714v-1.714a1.713 1.713 0 1 1 3.427 0v1.713h3.427v-1.713a1.712 1.712 0 1 1 3.427 0v1.713h1.714c.454 0 .89.18 1.211.502a1.71 1.71 0 0 1 0 2.423 1.712 1.712 0 0 1-1.211.503h-1.714v3.427h1.714a1.718 1.718 0 0 1 1.714 1.713zm-6.855-5.14h-3.427v3.427h3.427z" filter="url(#b)" style="mix-blend-mode:screen" transform="matrix(.879 0 0 .879 -30.965 -62.086)"/></svg>